<svg xmlns="http://www.w3.org/2000/svg" xmlns:xlink="http://www.w3.org/1999/xlink" viewBox="0 0 367 182" height="687.874" width="1387.087" xmlns:v="https://vecta.io/nano"><style><![CDATA[.B{stroke-linecap:round}.C{stroke-linejoin:round}.D{color-interpolation-filters:sRGB}.E{stroke-width:.345}.F{stroke:#6c6c6c}.G{stroke-opacity:.809}.H{stroke:#788076}.I{fill:#fdfdfd}.J{stroke-width:.215}.K{stroke-dasharray:0, 0.34507987, 0.69015973, 1.0352396, 1.38031947, 1.72539933, 2.0704792, 2.41555907, 2.76063894, 3.1057188, 3.45079867, 3.79587854, 4.14095841, 4.48603827, 4.83111814}.L{stroke-opacity:.863}.M{stroke-width:.227}.N{stroke-width:.125}]]></style><defs><linearGradient id="A" gradientUnits="userSpaceOnUse"><stop offset="0" stop-color="#ececec"/><stop offset="1" stop-color="#ececec" stop-opacity="0"/></linearGradient><filter height="1.08" y="-.04" width="1.241" x="-.12"  class="D"><feGaussianBlur stdDeviation=".342"/></filter><filter height="1.365" y="-.182" width="2" x="-.5"  class="D"><feGaussianBlur stdDeviation="1.56"/></filter><filter height="1.088" y="-.044" width="1.094" x="-.047"  class="D"><feGaussianBlur stdDeviation=".068"/></filter><filter height="2.13" y="-.565" width="1.212" x="-.106"  class="D"><feGaussianBlur stdDeviation="3.3"/></filter><filter height="1.407" y="-.203" width="1.386" x="-.193"  class="D"><feGaussianBlur stdDeviation="1.202"/></filter><linearGradient y2="100.425" x2="167.879" y1="100.425" x1="160.766" id="G" xlink:href="#A"/><linearGradient y2="92.13" x2="160.08" y1="92.13" x1="155.643" id="H" xlink:href="#A"/><linearGradient y2="62.547" x2="226.414" y1="62.547" x1="206.931" id="I" gradientUnits="userSpaceOnUse"><stop offset="0" stop-color="#ececec"/><stop offset="1" stop-color="#ececec" stop-opacity="0"/></linearGradient></defs><g transform="matrix(2.698238 0 0 2.698238 -269.20337 -128.96145)"><g class="I"><path d="M190.072 57.54l3.687-2.208c.597.478 1.067.98 1.273 1.534.186.737-.595 1.199-1.512 1.327-2.661.138-3.448-.653-3.448-.653zm-8.937 5.532l3.628-2.304c.609.462 1.092.952 1.312 1.5.205.732-.151 1.203-1.063 1.355-1.913.362-2.887-.131-3.877-.551z" stroke="#c5b9a1" class="J"/><path d="M151.608 64.698l36.32-13.688s2.794-1.37 6.645-.923l3.938.8s2.023.378-.123 1.477l-26.521 16.374z" class="E F G K"/></g><path d="M179.857 63.769l3.616-2.243-2.154-.486-2.995 2.027zm9.021-5.512l3.645-2.307-1.738-.461-3.122 1.984z" fill="#ccc"/><g class="B C E I K"><path d="M146.201 77.945l30.273 32.308c3.111 3.455 6.487 3.478 9.328 3.615 3.238.222.783-2.793.783-2.793l-19.3-30.122z" class="F G"/><path d="M216.344 89.624l18.075-30.216c1.57-2.092-5.775-8.835-10.501-5.196l-21.476 16.537c-3.466 4.509-48.093-6.545-72.841-10.297-8.973-1.096-19.685 2.52-27.249 7.168-1.909 1.583-.148 3.558-.148 3.558 8.481 6.986 101.951 28.725 114.14 18.446z" stroke="#726c60" class="L"/></g><path d="M213.516 90.913c2.474-.968 2.836-1.592 2.836-1.592-23.732 2.506-96.705-10.851-113.504-21.796-2.74 1.59-.169 3.851-.169 3.851 7.804 5.955 90.21 25.775 110.838 19.537z" fill="#ff74e9"/><g class="H"><path d="M210.709 77.375s6.395-2.001 9.614-.914c5.557 1.887 10.94 7.423 10.94 7.423s.926 1.042.056 1.346c-.901.458-3.905 1.541-3.905 1.541s-1.088.435-1.914.087c-11.07-4.932-14.627-8.045-14.627-8.045-1.193-.967-.619-1.238-.164-1.439z" class="E I"/><path d="M162.638 95.704l-9.74-2.284.81-5.584 2.223.547z" fill="#fefefe" class="J"/><ellipse cx="163.349" cy="65.681" rx="1.166" ry="2.852" transform="matrix(.987787 .155811 -.123763 .992312 0 0)" fill="#fff" class="M"/></g><ellipse cx="169.725" cy="32.063" rx=".519" ry="1.963" transform="matrix(.93721 .348764 -.182235 .983255 0 0)" fill="#ccc" stroke="#dedede" class="N"/><g fill="#fefefe" class="H"><path d="M171.108 104.608l-13-2.899.81-5.584 5.545 1.408z" class="J"/><ellipse cx="169.547" cy="73.061" rx="1.166" ry="2.852" transform="matrix(.987787 .155811 -.123763 .992312 0 0)" class="M"/></g><ellipse cx="176.457" cy="38.105" rx=".519" ry="1.963" transform="matrix(.93721 .348764 -.182235 .983255 0 0)" fill="#ccc" stroke="#dedede" class="N"/><path d="M167.879 101.39l-1.37-1.436s-5.672-1.066-5.743-.065c.141.723 7.113 1.501 7.113 1.501z" fill="url(#G)"/><path d="M158.802 91.624s-3.088-.82-3.159.181c.141.723 4.437 1.147 4.437 1.147z" fill="url(#H)"/><path d="M111.829 63.327l7.418 2.776c2.506.578 2.461-2.135 1.065-3.247-1.354-.984-2.395-1.436-2.395-1.436z" opacity=".479" fill="#f2f2f2" stroke="#90948f" stroke-width=".475" stroke-dasharray="0.04752987, 0.04752987" paint-order="stroke fill markers" class="B C"/><path d="M117.827 71.415s1.397-2.107 8.092-1.044l89.01 15.314-1.04 2.636s-72.72-8.651-96.061-16.905z" fill="#ed106b"/><g stroke-dasharray="0.1024039, 0.1024039" stroke-width=".205" stroke="#696969" fill="#f9f9f9" transform="matrix(.885085 .46543 -.389224 .921143 0 0)" class="B C"><ellipse cx="158.252" cy="-2.101" rx="2.362" ry="2.965" paint-order="stroke fill markers"/><ellipse cx="151.303" cy="-.243" rx="2.362" ry="2.965" paint-order="stroke fill markers"/><ellipse cx="164.849" cy="-4.537" rx="2.362" ry="2.965" paint-order="stroke fill markers"/><ellipse cx="171.734" cy="-6.316" rx="2.362" ry="2.965" paint-order="stroke fill markers"/><ellipse cx="178.716" cy="-8.993" rx="2.362" ry="2.965" paint-order="stroke fill markers"/><ellipse cx="185.809" cy="-10.971" rx="2.362" ry="2.965" paint-order="stroke fill markers"/><ellipse cx="193.236" cy="-13.307" rx="2.362" ry="2.965" paint-order="stroke fill markers"/><ellipse cx="200.286" cy="-15.83" rx="2.362" ry="2.965" paint-order="stroke fill markers"/><ellipse cx="207.54" cy="-17.89" rx="2.362" ry="2.965" paint-order="stroke fill markers"/></g><path d="M202.073 71.426c1.667 2.77 3.074 3.72 4.504 4.825" fill="none" stroke="#d2c9b7" stroke-opacity=".754" class="E"/><path d="M208.664 71.415c-8.624 3.382 17.75-18.098 17.75-18.098-6.461 11.965-11.456 15.517-17.75 18.098z" fill="url(#I)"/><path d="M170.413 91.275l3.607.353 1.134 1.736-3.665-.516zm5.801 8.582l3.27.828 1.803 2.062-3.492-.752z" fill="#ccc"/><g fill="none" class="E"><path d="M172.649 68.129c6.488-3.794 14.751-8.736 23.198-14.145" class="B C F G"/><path d="M102.204 71.178c16.422 9.732 103.903 27.84 113.727 18.62" class="H"/><path d="M202.874 70.389l21.966-16.953" stroke="#638076"/><path d="M102.573 67.485c7.78-4.703 15.228-6.776 22.166-7.223" stroke="#726c60" class="B C L"/><path d="M151.633 64.434l14.98 2.909" class="H"/><path d="M151.94 64.496l26.608-9.94" stroke="#939991" class="B C"/><path d="M173.388 68.607c8.095 1.44 17.535 3.221 26.024 3.127" stroke="#638076"/><path d="M184.668 108.112L174.02 91.629" class="B C F G"/></g></g></svg>