<svg xmlns="http://www.w3.org/2000/svg" viewBox="0 0 208 210" height="793.701" width="786.142" xmlns:v="https://vecta.io/nano"><style><![CDATA[.B{stroke-linecap:round}.C{stroke-linejoin:round}.D{stroke-width:1.044}.E{stroke:#4d4d4d}.F{stroke-dashoffset:4.13999987}.G{stroke:#fb6909}.H{stroke-dasharray:0.52201165, 0.52201165}.I{color-interpolation-filters:sRGB}.J{stroke-dasharray:0, 1.0440233, 2.0880466, 3.1320699, 4.1760932, 5.22011651, 6.2641398, 7.30816311, 8.35218641, 9.39620972, 10.44023302, 11.48425632, 12.52827962, 13.57230293, 14.61632622}.K{stroke-opacity:.918}]]></style><defs><filter height="1.08" y="-.04" width="1.241" x="-.12"  class="I"><feGaussianBlur stdDeviation=".342"/></filter><filter height="1.365" y="-.182" width="2" x="-.5"  class="I"><feGaussianBlur stdDeviation="1.56"/></filter></defs><g fill="none" stroke="#a40" class="B C"><path d="M129.073 6.751l2.504 158.109" stroke-width="1.124"/><path d="M131.577 164.861c-6.632-24.054-14.418-49.744-10.588-107.801" stroke-width="1.874"/></g><g class="D E J B C"><path d="M38.631 128.362c19.464 25.985 64.997 28.527 87.602 20.609-27.148-49.413 2.839-116.424 2.839-116.424-46.814 18.589-80.395 47.939-90.442 95.815z" fill="#f9f9f9"/><path d="M131.298 137.812s32.064 20.793 57.904-5.009c-23.844-16.731-42.435-45.893-59.647-77.14l1.743 82.149z" fill="#f2f2f2"/></g><path d="M129.073 9.026v11.019s5.009-3.005 12.021 1.002 12.021.501 12.021.501 16.028-10.018 26.046-4.007-8.515-11.019-21.037-5.51-16.529-2.004-19.034-3.005-8.014-3.005-10.018 0z" fill="#4285f4" stroke="#4262fc" stroke-width=".717" stroke-dasharray="0, 0.71736456, 1.43472913, 2.1520937, 2.86945827, 3.58682283, 4.3041874, 5.02155197, 5.73891654, 6.4562811, 7.17364566, 7.89101024, 8.60837479, 9.32573936, 10.04310393" class="B C"/><path d="M5.786 157.737l32.057 47.083h145.256l20.491-35.491z" fill="#fbbc05" class="B C D G J"/><g fill="none"><path d="M149.26 144.685c19.401 4.903 34.272-6.986 34.272-6.986" stroke="#555" stroke-width=".991" class="B C"/><g class="D"><path d="M40.785 119.087c8.023-24.538 14.52-30.675 16.234-34.294" class="B C E F"/><path d="M19.611 169.469l2.213-3.737m4.238 11.631l5.982-10.362m5.586 19.183l8.882-15.384m17.502 23.567l14.813-25.657m-33.451 31.688l17.581-30.451" stroke="#fb9c05" class="H B C K"/><path d="M7.829 160.883l22.335 32.668m2.136 3.165l5.542 8.104m0 0l30.079.051m19.924-.091l30.079.051m17.299-.051l30.079.051M36.537 159.546l50.579 2.875m19.097 1.184l35.523 2.048" class="G B C H"/><path d="M88.248 152.066c-21.132.062-43.427-14.457-47.179-20.627m82.273 12.456c-18.31-42.463-1.726-92.538 1.867-101.286" class="E F"/><path d="M130.612 123.429l-.903-44.344m25.597 18.261c-9.276-12.984-17.991-26.643-25.554-41.683" stroke="#555" class="B C F"/></g><path d="M132.815 19.029c7.996-.616 10.933 6.774 19.999 2.756m-8.747-9.199c7.153 3.825 15.488-2.019 18.609-1.663m4.736.432c1.773.121 6.472 1.926 8.53 2.926m-2.611 1.553c.963.207 3.859.359 7.098 2.412" stroke="#4262fc" stroke-width=".704" stroke-dasharray="0.35193289, 0.35193289" class="B C"/><path d="M73.274 66.892c13.548-15.659 38.926-27.065 46.052-30.185" class="B C D E F"/></g><path d="M112.961 45.404s-65.309 30.184-63.928 81.291c.395 14.601 35.738 21.689 34.332 9.865-3.754-31.567-14.206-46.17 29.596-91.156z" fill="#fff"/><g fill="none" class="B C D H"><path d="M153.01 166.454l50.579 2.875" class="G"/><path d="M75.377 200.256l14.813-25.657" stroke="#fb9c05" class="K"/></g></svg>