<?xml version="1.0" encoding="UTF-8" standalone="no"?>
<svg
   viewBox="0 0 297 210"
   height="793.701"
   width="1122.52"
   version="1.1"
   id="svg613"
   sodipodi:docname="castelo.svg"
   inkscape:version="1.1 (c68e22c387, 2021-05-23)"
   xmlns:inkscape="http://www.inkscape.org/namespaces/inkscape"
   xmlns:sodipodi="http://sodipodi.sourceforge.net/DTD/sodipodi-0.dtd"
   xmlns:xlink="http://www.w3.org/1999/xlink"
   xmlns="http://www.w3.org/2000/svg"
   xmlns:svg="http://www.w3.org/2000/svg">
  <sodipodi:namedview
     id="namedview615"
     pagecolor="#ffffff"
     bordercolor="#666666"
     borderopacity="1.0"
     inkscape:pageshadow="2"
     inkscape:pageopacity="0.0"
     inkscape:pagecheckerboard="0"
     showgrid="false"
     inkscape:zoom="0.98651761"
     inkscape:cx="561.06449"
     inkscape:cy="721.22382"
     inkscape:window-width="1920"
     inkscape:window-height="1001"
     inkscape:window-x="-9"
     inkscape:window-y="-9"
     inkscape:window-maximized="1"
     inkscape:current-layer="svg613" />
  <style
     id="style313"><![CDATA[.B{stroke-linejoin:round}.C{stroke-linecap:round}.D{stroke-opacity:.996}.E{fill-opacity:.98}.F{fill:#009edb}.G{fill:none}.H{stroke-width:.41}.I{fill:#5f6061}.J{fill:#babcbd}.K{fill-opacity:.984}.L{stroke:#aeaeb2}.M{fill:#c4c6c7}.N{fill-opacity:.985}.O{stroke-width:.925}.P{fill:#dcdedf}.Q{stroke:#dcdedf}.R{stroke-width:.719}.S{stroke-opacity:.749}.T{stroke-dasharray:0.35969207, 0.35969207}.U{stroke-dasharray:0, 0.92492248, 1.84984497, 2.77476745, 3.69968994, 4.62461242, 5.54953491, 6.47445739, 7.39937988, 8.32430236, 9.24922485, 10.17414733, 11.09906982, 12.0239923, 12.94891479}.V{fill:#c6c6c8}.W{stroke:#c6c6c8}.X{stroke-dasharray:0.46246122, 0.46246122}.Y{fill:#009edc}.Z{stroke:#009edc}.a{stroke-width:.822}.b{stroke-dasharray:0, 0.82215332, 1.64430664, 2.46645996, 3.28861327, 4.11076659, 4.93291992, 5.75507324, 6.57722656, 7.39937988, 8.2215332, 9.04368652, 9.86583983, 10.68799315, 11.51014647}.c{fill:#a0a2a6}.d{stroke:#c4c6c7}.e{stroke-width:.102}.f{color-interpolation-filters:sRGB}.g{stroke-width:.514}.h{stroke-dasharray:0, 0.51384583, 1.02769165, 1.54153748, 2.0553833, 2.56922913, 3.08307495, 3.59692078, 4.11076659, 4.62461242, 5.13845824, 5.65230407, 6.16614989, 6.67999572, 7.19384155}.i{stroke-dasharray:0.46246124, 0.46246124}.j{fill-opacity:.995}.k{stroke-opacity:.925}.l{stroke-width:.122}.m{stroke-dasharray:0.06096205, 0.06096205}.n{stroke-width:.108}.o{stroke-dasharray:0.05412598, 0.05412598}.p{stroke-dasharray:0.05107935, 0.05107935}.q{stroke-width:.098}.r{stroke-dasharray:0.04876268, 0.04876268}.s{stroke-width:.743}.t{stroke-dasharray:0.37151051, 0.37151051}]]></style>
  <defs
     id="defs331">
    <filter
       height="1.08"
       y="-.04"
       width="1.241"
       x="-.12"
       class="f"
       id="filter317">
      <feGaussianBlur
         stdDeviation=".342"
         id="feGaussianBlur315" />
    </filter>
    <filter
       height="1.365"
       y="-.182"
       width="2"
       x="-.5"
       class="f"
       id="filter321">
      <feGaussianBlur
         stdDeviation="1.56"
         id="feGaussianBlur319" />
    </filter>
    <path
       id="C"
       d="M143.858 10.107c-9.774 14.391-17.645 30.533-25.836 46.381l51.516-.954c-8.238-16.328-16.621-32.121-25.68-45.426z" />
    <path
       id="D"
       d="M67.628 118.914c-1.532-.527-3.346-2.138-6.406.136-1.371-2.29-4.696-1.21-5.418-.029-1.76-2.032-3.912-1.628-5.506.155 0 0-4.276-3.47-6.207.353l.047 7.687h62.547v-8.266c-1.091-2.046-3.078-1.809-5.683 0-1.818-1.158-3.589-2.458-6.613 0-2.781-2.671-5.032-1.843-7.129 0-1.792-1.709-3.686-2.399-5.889 0 0 0-3.505-2.65-7.026.207-2.258-1.887-4.52-2.003-6.716-.242z" />
    <path
       id="E"
       d="M81.817 154.996h13.852v-14.564c0-7.554-14.016-6.876-13.963.082z" />
    <path
       id="F"
       d="M80.595 154.688h16.067s-1.019 6.373-7.801 6.251c-7.508-.135-8.266-6.251-8.266-6.251z" />
    <path
       id="G"
       d="M83.398 152.7h10.665v-11.591c0-5.811-10.791-5.462-10.75.065z" />
    <path
       id="H"
       d="M86.174 160.474c-1.352-1.666-2.452-3.458-2.17-5.941" />
    <path
       id="I"
       d="M91.03 160.629c1.485-1.588 2.735-3.262 2.583-5.941" />
    <path
       id="J"
       d="M44.466 81.325l5.361 4.179c19.126-5.929 35.728-4.658 51.022.342l4.842-4.693c-25.183-4.996-42.431-6.063-61.224.171z" />
  </defs>
  <path
     d="M292.424 205.011h-78.386s2.243-16.29 17.849-9.982c0 0-4.589-18.588 17.412-18.682 21.875-.093 17.839 16.106 17.839 16.106.277-1.083 12.824-13.275 13.981 7.406 8.248-5.288 10.078-.54 11.304 5.152zm-287.303.22h78.386s-2.243-16.29-17.849-9.982c0 0 4.589-18.588-17.412-18.682-21.875-.093-17.839 16.106-17.839 16.106-.277-1.083-12.824-13.275-13.981 7.406-8.248-5.288-10.078-.54-11.304 5.152z"
     fill="#4d8e31"
     stroke="#4d8e31"
     class="B C g h"
     id="path333" />
  <g
     class="O"
     id="g341">
    <path
       d="M121.542 59.341v89.611h42.991V59.017z"
       stroke-opacity=".985"
       class="P Q U"
       id="path335" />
    <path
       d="M103.365 139.691v12.432h81.065l-.01-13.146c-.001-.971-4.177-2.773-7.05.271 0 0-3.354-3.691-7.452-.704 0 0-3.206-3.333-7.714-.352 0 0-3.624-3.066-6.966.277 0 0-3.717-3.057-7.673.629 0 0-3.081-3.916-7.512-.054-2.114-1.802-4.099-2.509-7.541.073-2.941-2.548-4.608-2.721-7.045.146-2.083-2.659-4.797-3.513-7.869-.292 0 0-3.271-3.684-7.364.175-1.965-1.298-4.485-2.729-6.867.544z"
       class="B C V W X"
       id="path337" />
    <path
       d="M45.049 205.613h197.75l-.024-75.17h-60.217v18.586l-78.228-.877.184-17.321-60.047.024z"
       class="P Q U"
       id="path339" />
  </g>
  <path
     d="m 126.321,205.96017 h 34.995 v -27.992 c 0,-23.443 -34.995,-23.582 -34.995,0 z"
     fill="#ba8b50"
     class="E"
     id="path343" />
  <g
     class="B C"
     id="g349">
    <path
       d="M147.867 205.296V162.19m7.452 43.252v-40.184m-23.542 1.099v38.646m7.615.146v-43.106"
       stroke="#8e540c"
       stroke-dasharray="0.35952889, 0.35952889"
       class="G R S"
       id="path345" />
    <use
       xlink:href="#C"
       class="Y Z a b"
       id="use347" />
  </g>
  <g
     class="O"
     id="g359">
    <path
       d="M49.534 79.872v40.673h51.427V79.725z"
       stroke-opacity=".99"
       class="P Q U"
       id="path351" />
    <g
       class="B C"
       id="g357">
      <use
         xlink:href="#D"
         class="V W X"
         id="use353" />
      <path
         d="M40.983 127.319h67.454l-3.923 3.513H44.297z"
         stroke="#a0a2a6"
         class="c i"
         id="path355" />
    </g>
  </g>
  <g
     class="M B C"
     id="g373">
    <path
       d="M109.58 50.607l5.647 9.817 57.531-.153 3.265-7.516-8.471-3.221-1.941 3.758-4.235-1.457 1.235-4.141-9.265-2.301-1.5 4.755-4.412-.614.529-4.678-9.353-.23v4.832l-4.677.69-1.412-4.985-9.177 1.764 1.324 4.832-4.147.92-1.5-4.448z"
       stroke="#c1c5c7"
       stroke-width=".651"
       stroke-dasharray="0.32574418, 0.32574418"
       class="N"
       id="path361" />
    <g
       class="R T"
       id="g371">
      <g
         class="d"
         id="g367">
        <path
           d="M127.607 117.029h4.908v2.221h-4.908zm-2.455-3.961h5.218v2.325h-5.218zm13.356 16.834h5.166v2.325h-5.166zm2.376 3.306h5.218v1.705h-5.218z"
           paint-order="fill markers stroke"
           id="path363" />
        <path
           d="M156.796 91.982h5.373v2.48h-5.373z"
           opacity=".748"
           paint-order="fill markers stroke"
           id="path365" />
      </g>
      <path
         d="M149.667 64.084h6.406v2.686h-6.406zm4.133 4.96h6.199v2.893H153.8z"
         opacity=".748"
         paint-order="fill markers stroke"
         stroke="#cacccd"
         id="path369" />
    </g>
  </g>
  <use
     xlink:href="#E"
     class="F"
     id="use375" />
  <use
     xlink:href="#F"
     class="J K"
     id="use377" />
  <use
     xlink:href="#G"
     class="I"
     id="use379" />
  <g
     class="B C G H L D"
     id="g387">
    <use
       xlink:href="#H"
       id="use381" />
    <path
       d="M88.447 160.836l.052-6.199"
       id="path383" />
    <use
       xlink:href="#I"
       id="use385" />
  </g>
  <g
     class="F"
     id="g393">
    <path
       d="M79.045 152.88h18.702v1.757H79.045z"
       paint-order="fill markers stroke"
       id="path389" />
    <use
       xlink:href="#E"
       x="-26.565"
       y="10.553"
       id="use391" />
  </g>
  <use
     xlink:href="#F"
     x="-26.566"
     y="10.554"
     fill-opacity=".931"
     class="B H M d"
     id="use395" />
  <use
     xlink:href="#G"
     x="-26.565"
     y="10.554"
     class="I"
     id="use397" />
  <g
     stroke="#aaaaae"
     class="B C G H S"
     id="g405">
    <use
       xlink:href="#H"
       x="-26.565"
       y="10.554"
       id="use399" />
    <path
       d="M61.882 171.389l.052-6.199"
       id="path401" />
    <use
       xlink:href="#I"
       x="-26.565"
       y="10.554"
       id="use403" />
  </g>
  <path
     d="M52.479 163.433h18.702v1.757H52.479z"
     stroke="#009edb"
     paint-order="fill markers stroke"
     class="B F H"
     id="path407" />
  <g
     class="C B"
     id="g429">
    <g
       stroke="#c4c6c8"
       class="M R T"
       id="g415">
      <path
         d="M77.73 168.013h5.166v2.325H77.73zm2.377 3.306h5.218v1.705h-5.218z"
         paint-order="fill markers stroke"
         id="path409" />
      <rect
         rx=".167"
         y="179.703"
         x="92.05"
         height="2.325"
         width="5.166"
         paint-order="fill markers stroke"
         class="j"
         id="rect411" />
      <rect
         rx=".167"
         y="183.009"
         x="94.427"
         height="1.705"
         width="5.218"
         paint-order="fill markers stroke"
         class="j"
         id="rect413" />
    </g>
    <path
       d="M49.383 174.735h5.166v2.325h-5.166zm2.376 3.306h5.218v1.705h-5.218z"
       paint-order="fill markers stroke"
       stroke-width=".617"
       stroke-dasharray="0.30830749, 0.30830749"
       class="d M"
       id="path417" />
    <g
       class="R T"
       id="g427">
      <path
         d="M188.491 171.52h5.166v2.325h-5.166zm2.376 3.306h5.218v1.705h-5.218zm14.574-8.274h5.166v2.325h-5.166zm2.668-3.196h5.218v1.705h-5.218zm-36.33 16.173h5.218v1.705h-5.218zm3.142-2.849h5.218v1.705h-5.218z"
         fill-opacity=".933"
         paint-order="fill markers stroke"
         fill="#c4c5c8"
         stroke="#c6c7ca"
         id="path419" />
      <g
         stroke="#c4c6c8"
         fill="#c4c6c8"
         class="N"
         id="g425">
        <rect
           rx=".2"
           y="193.115"
           x="108.522"
           height="2.298"
           width="5.218"
           paint-order="fill markers stroke"
           id="rect421" />
        <rect
           rx=".234"
           y="189.681"
           x="111.689"
           height="2.156"
           width="4.146"
           paint-order="fill markers stroke"
           id="rect423" />
      </g>
    </g>
  </g>
  <g
     stroke-width=".409"
     class="G k"
     id="g435">
    <path
       d="M104.101 205.431v-53.108"
       stroke="#c5c6c9"
       id="path431" />
    <path
       d="M183.04 205.535v-53.108"
       stroke="#c4c5c8"
       id="path433" />
  </g>
  <path
     d="M74.737 29.262c-9.774 14.391-17.645 30.533-25.836 46.381l51.516-.954C92.18 58.36 83.797 42.567 74.737 29.262z"
     class="B C Y Z a b"
     id="path437" />
  <g
     class="O"
     id="g443">
    <path
       d="M187.795 80.06v40.096h51.427V79.915z"
       stroke-dasharray="0, 0.92492243, 1.84984487, 2.7747673, 3.69968973, 4.62461217, 5.5495346, 6.47445702, 7.39937946, 8.32430189, 9.24922432, 10.17414676, 11.09906919, 12.02399162, 12.94891406"
       stroke-opacity=".995"
       class="P Q"
       id="path439" />
    <use
       xlink:href="#D"
       x="138.261"
       y="-0.389"
       class="B C V W X"
       id="use441" />
  </g>
  <use
     xlink:href="#C"
     x="69.141"
     y="18.766"
     class="B C Y Z a b"
     id="use445" />
  <g
     stroke="#a1a3a7"
     class="c E"
     id="g485"
     transform="translate(0,0.52916652)">
    <g
       class="l m B C"
       id="g457">
      <rect
         rx="0.60100001"
         y="200.058"
         x="120.219"
         height="5.3779998"
         width="7.0469999"
         paint-order="fill markers stroke"
         id="rect447" />
      <rect
         rx="0.66799998"
         y="193.131"
         x="120.652"
         height="5.881"
         width="6.2470002"
         paint-order="fill markers stroke"
         id="rect449" />
      <rect
         rx="0.70200002"
         y="186.3"
         x="120.432"
         height="5.7350001"
         width="6.4289999"
         paint-order="fill markers stroke"
         id="rect451" />
      <rect
         rx="0.90200001"
         y="179.651"
         x="120.542"
         height="5.553"
         width="6.21"
         paint-order="fill markers stroke"
         id="rect453" />
      <rect
         rx="0.34"
         transform="rotate(2.618)"
         y="170.17799"
         x="128.847"
         height="2.849"
         width="5.7350001"
         paint-order="fill markers stroke"
         id="rect455" />
    </g>
    <path
       d="m 121.614,173.298 c -0.221,-1.39 0.021,-2.77 1.085,-4.081 0.379,-0.467 1.052,-0.715 1.653,-0.723 1.599,-0.021 4.443,1.808 4.443,1.808 l -1.094,5.279 c 0,0 -3.58,-0.158 -5.071,-0.715 -0.583,-0.218 -0.918,-0.953 -1.016,-1.568 z"
       class="n o"
       id="path459" />
    <path
       d="m 124.592,165.327 c 0.367,-1.272 1.127,-2.351 2.566,-3.045 0.513,-0.247 1.19,-0.192 1.71,0.041 1.381,0.617 2.909,4.035 2.909,4.035 l -2.871,3.331 c 0,0 -3.011,-1.557 -4.069,-2.623 -0.414,-0.417 -0.407,-1.176 -0.245,-1.739 z"
       class="e p"
       id="path461" />
    <path
       d="m 130.047,159.39 c 0.741,-1.072 1.719,-1.785 3.089,-1.829 0.488,-0.015 0.996,0.334 1.318,0.786 0.856,1.201 1.558,4.844 1.558,4.844 l -3.76,2.527 c 0,0 -2.193,-3.042 -2.637,-4.537 -0.174,-0.585 0.103,-1.317 0.431,-1.791 z m 9.017,-4.032 c 0.48,0.089 0.756,0.319 0.975,0.829 0.581,1.356 1.077,5.612 1.077,5.612 l -4.211,0.977 c 0,0 -1.497,-3.439 -1.612,-4.994 -0.045,-0.608 -0.126,-0.642 0.071,-1.184 0.535,-1.281 2.805,-1.388 3.7,-1.24 z"
       class="q r"
       id="path463" />
    <path
       d="m 142.123,154.662 c 0,0 1.993,-0.807 3.449,0.09 0.519,0.32 0.71,1.087 0.808,1.683 0.26,1.585 -0.682,4.89 -0.682,4.89 l -3.73,-0.238 c 0,0 -1.078,-3.142 -0.907,-4.864 0,0 -0.043,-1.241 1.062,-1.561 z"
       class="n o"
       id="path465" />
    <path
       d="m 148.84,155.186 c -0.48,0.089 -0.756,0.319 -0.975,0.829 -0.581,1.356 -1.077,5.612 -1.077,5.612 l 4.211,0.977 c 0,0 1.497,-3.439 1.612,-4.994 0.045,-0.608 0.126,-0.642 -0.071,-1.184 -0.535,-1.281 -2.805,-1.388 -3.7,-1.24 z m 9,4.359 c -0.741,-1.072 -1.719,-1.785 -3.09,-1.829 -0.488,-0.015 -0.996,0.334 -1.318,0.786 -0.856,1.201 -1.558,4.844 -1.558,4.844 l 3.76,2.527 c 0,0 2.193,-3.042 2.637,-4.537 0.174,-0.585 -0.103,-1.317 -0.431,-1.791 z"
       class="q r"
       id="path467" />
    <path
       d="m 163.244,165.671 c -0.367,-1.272 -1.127,-2.351 -2.566,-3.045 -0.513,-0.247 -1.19,-0.192 -1.71,0.041 -1.381,0.617 -2.909,4.035 -2.909,4.035 l 2.871,3.331 c 0,0 3.011,-1.557 4.069,-2.623 0.414,-0.417 0.407,-1.176 0.245,-1.739 z"
       class="e p"
       id="path469" />
    <path
       d="m 166.406,173.438 c 0.221,-1.291 -0.021,-2.573 -1.085,-3.791 -0.379,-0.434 -1.052,-0.665 -1.653,-0.672 -1.599,-0.019 -4.443,1.68 -4.443,1.68 l 1.094,4.903 c 0,0 3.58,-0.147 5.071,-0.664 0.583,-0.202 0.918,-0.885 1.016,-1.456 z"
       stroke-width="0.104"
       stroke-dasharray="0.0521662, 0.0521662"
       id="path471" />
    <g
       class="B C l m"
       id="g483">
      <rect
         rx="0.33399999"
         y="200.168"
         x="160.444"
         height="5.3779998"
         width="7.0469999"
         paint-order="fill markers stroke"
         id="rect473" />
      <rect
         rx="0.53500003"
         y="193.24001"
         x="160.87601"
         height="5.881"
         width="6.2470002"
         paint-order="fill markers stroke"
         id="rect475" />
      <rect
         rx="0.73500001"
         y="186.409"
         x="160.657"
         height="5.7350001"
         width="6.4289999"
         paint-order="fill markers stroke"
         id="rect477" />
      <rect
         rx="0.46799999"
         y="179.761"
         x="160.767"
         height="5.553"
         width="6.21"
         paint-order="fill markers stroke"
         id="rect479" />
      <rect
         rx="0.34"
         transform="rotate(2.618)"
         y="168.45"
         x="169.035"
         height="2.849"
         width="5.7350001"
         paint-order="fill markers stroke"
         id="rect481" />
    </g>
  </g>
  <path
     d="M69.108 107.518h13.852V92.954c0-7.554-14.016-6.876-13.963.082z"
     class="F"
     id="path487" />
  <use
     xlink:href="#F"
     x="-12.709"
     y="-47.477"
     class="J K"
     id="use489" />
  <path
     d="M70.689 105.223h10.665V93.632c0-5.811-10.791-5.462-10.75.065z"
     class="I"
     id="path491" />
  <g
     class="B C G H L D"
     id="g499">
    <use
       xlink:href="#H"
       x="-12.709"
       y="-47.477"
       id="use493" />
    <path
       d="M75.739 113.358l.052-6.199"
       id="path495" />
    <use
       xlink:href="#I"
       x="-12.708"
       y="-47.477"
       id="use497" />
  </g>
  <g
     class="F"
     id="g505">
    <path
       d="M66.336 105.403h18.702v1.757H66.336z"
       paint-order="fill markers stroke"
       id="path501" />
    <path
       d="M137.715 89.126h13.852V74.562c0-7.554-14.016-6.876-13.963.082z"
       id="path503" />
  </g>
  <use
     xlink:href="#F"
     x="55.898"
     y="-65.869"
     class="J K"
     id="use507" />
  <path
     d="M139.296 86.831h10.665V75.24c0-5.811-10.791-5.462-10.75.065z"
     class="I"
     id="path509" />
  <g
     class="B C G H L D"
     id="g517">
    <use
       xlink:href="#H"
       x="55.898"
       y="-65.869"
       id="use511" />
    <path
       d="M144.346 94.967l.052-6.199"
       id="path513" />
    <use
       xlink:href="#I"
       x="55.899"
       y="-65.869"
       id="use515" />
  </g>
  <g
     class="F"
     id="g523">
    <path
       d="M134.943 87.218h18.702v1.757h-18.702z"
       paint-order="fill markers stroke"
       id="path519" />
    <use
       xlink:href="#E"
       x="55.278"
       y="-34.038"
       id="use521" />
  </g>
  <use
     xlink:href="#F"
     x="55.278"
     y="-34.037"
     class="J K"
     id="use525" />
  <use
     xlink:href="#G"
     x="55.278"
     y="-34.037"
     class="I"
     id="use527" />
  <g
     class="B C G H L D"
     id="g535">
    <use
       xlink:href="#H"
       x="55.278"
       y="-34.037"
       id="use529" />
    <path
       d="M143.726 126.799l.052-6.199"
       id="path531" />
    <use
       xlink:href="#I"
       x="55.279"
       y="-34.037"
       id="use533" />
  </g>
  <g
     class="F"
     id="g541">
    <path
       d="M134.323 119.05h18.702v1.757h-18.702z"
       paint-order="fill markers stroke"
       id="path537" />
    <use
       xlink:href="#E"
       x="110.646"
       y="0.49"
       id="use539" />
  </g>
  <use
     xlink:href="#F"
     x="110.646"
     y="0.49"
     class="J K"
     id="use543" />
  <use
     xlink:href="#G"
     x="110.646"
     y="0.49"
     class="I"
     id="use545" />
  <g
     class="B C G H L D"
     id="g553">
    <use
       xlink:href="#H"
       x="110.646"
       y="0.49"
       id="use547" />
    <path
       d="M199.093 161.326l.052-6.199"
       id="path549" />
    <use
       xlink:href="#I"
       x="110.646"
       y="0.49"
       id="use551" />
  </g>
  <path
     d="M189.691 153.783h18.702v1.757h-18.702z"
     paint-order="fill markers stroke"
     class="F"
     id="path555" />
  <use
     xlink:href="#E"
     x="140.624"
     y="8.73"
     class="F"
     id="use557" />
  <use
     xlink:href="#F"
     x="140.623"
     y="8.731"
     class="J K"
     id="use559" />
  <path
     d="M224.022 161.431h10.665V149.84c0-5.811-10.791-5.462-10.75.065z"
     class="I"
     id="path561" />
  <g
     class="B C G L e D"
     id="g569">
    <use
       xlink:href="#H"
       x="140.624"
       y="8.731"
       id="use563" />
    <path
       d="M229.071 169.567l.052-6.199"
       id="path565" />
    <use
       xlink:href="#I"
       x="140.624"
       y="8.731"
       id="use567" />
  </g>
  <path
     d="M219.669 161.611h18.702v1.757h-18.702z"
     paint-order="fill markers stroke"
     class="F"
     id="path571" />
  <path
     d="M206.219 106.691h13.852V92.128c0-7.554-14.016-6.876-13.963.082z"
     class="F"
     id="path573" />
  <use
     xlink:href="#F"
     x="124.402"
     y="-48.304"
     class="J K"
     id="use575" />
  <path
     d="M207.8 104.396h10.665V92.805c0-5.811-10.791-5.462-10.75.065z"
     class="I"
     id="path577" />
  <g
     class="B C G H L D"
     id="g585">
    <use
       xlink:href="#H"
       x="124.402"
       y="-48.304"
       id="use579" />
    <path
       d="M212.849 112.532l.052-6.199"
       id="path581" />
    <use
       xlink:href="#I"
       x="124.402"
       y="-48.304"
       id="use583" />
  </g>
  <path
     d="M203.447 104.576h18.702v1.757h-18.702z"
     paint-order="fill markers stroke"
     class="F"
     id="path587" />
  <g
     stroke="#c1c5c7"
     stroke-width="0.672"
     class="M N"
     id="g593"
     style="stroke-linecap:round;stroke-linejoin:round">
    <path
       d="m 38.364,71.364 6.017,9.811 61.297,-0.153 3.479,-7.511 -9.025,-3.219 -2.068,3.756 -4.513,-1.456 1.316,-4.139 -9.872,-2.299 -1.598,4.752 -4.701,-0.613 0.564,-4.675 -9.965,-0.23 v 4.829 l -4.983,0.69 -1.504,-4.982 -9.777,1.763 1.41,4.829 -4.419,0.92 -1.598,-4.446 z"
       stroke-dasharray="0.336055, 0.336055"
       id="path589" />
    <path
       d="m 176.625,70.975 6.017,9.811 61.297,-0.153 3.479,-7.511 -9.025,-3.219 -2.068,3.756 -4.513,-1.456 1.316,-4.139 -9.872,-2.299 -1.598,4.752 -4.701,-0.613 0.564,-4.675 -9.965,-0.23 v 4.829 l -4.983,0.69 -1.504,-4.982 -9.778,1.763 1.41,4.829 -4.419,0.92 -1.598,-4.446 z"
       stroke-dasharray="0.336137, 0.336137"
       id="path591" />
  </g>
  <g
     stroke="#a0a2a6"
     class="c"
     id="g607"
     style="stroke-linecap:round;stroke-linejoin:round">
    <use
       xlink:href="#J"
       class="s t"
       id="use595"
       x="0"
       y="0"
       width="100%"
       height="100%" />
    <path
       d="m 115.234,60.421 6.295,3.425 c 16.255,-5.649 30.365,-4.438 43.364,0.326 l 7.344,-3.914 c -17.091,-5.823 -35.279,-8.271 -57.003,0.163 z"
       stroke-width="0.669"
       stroke-dasharray="0.334333, 0.334333"
       id="path597" />
    <use
       xlink:href="#J"
       x="138.261"
       y="-0.38800001"
       class="s t"
       id="use599"
       width="100%"
       height="100%" />
    <g
       class="O i"
       id="g605">
      <path
         d="m 179.245,126.93 h 67.454 l -3.923,3.513 h -60.217 z"
         id="path601" />
      <path
         d="m 104.33,145.999 h 78.235 v 2.153 H 104.33 Z"
         paint-order="fill markers stroke"
         id="path603" />
    </g>
  </g>
  <path
     d="m 18.923,208.10685 h 83.448 c 0,0 -2.388,-16.022 -19.001,-9.817 0,0 4.886,-18.282 -18.537,-18.374 -23.288,-0.091 -18.991,15.841 -18.991,15.841 -0.295,-1.065 -13.652,-13.056 -14.884,7.284 -8.781,-5.201 -10.729,-0.531 -12.034,5.067 z m 256.81,0.362 h -83.448 c 0,0 2.388,-16.022 19.001,-9.817 0,0 -4.886,-18.282 18.537,-18.374 23.288,-0.091 18.991,15.841 18.991,15.841 0.295,-1.065 13.652,-13.056 14.884,7.284 8.781,-5.201 10.729,-0.531 12.034,5.067 z"
     fill="#a4ce50"
     stroke="#a4ce50"
     class="g h E"
     id="path609"
     style="stroke-linecap:round;stroke-linejoin:round" />
</svg>
