<svg xmlns="http://www.w3.org/2000/svg" viewBox="0 0 228 280" height="1058.268" width="861.732" xmlns:v="https://vecta.io/nano"><style><![CDATA[.B{color-interpolation-filters:sRGB}.C{stroke-width:.065}.D{stroke-linejoin:round}.E{stroke-linecap:round}]]></style><defs><filter height="1.08" y="-.04" width="1.241" x="-.12"  class="B"><feGaussianBlur stdDeviation=".342"/></filter><filter height="1.365" y="-.182" width="2" x="-.5"  class="B"><feGaussianBlur stdDeviation="1.56"/></filter><filter height="1.2" y="-.1" width="1.027" x="-.014" id="C" class="B"><feGaussianBlur stdDeviation=".477"/></filter><filter height="1.172" y="-.086" width="1.051" x="-.026" id="D" class="B"><feGaussianBlur stdDeviation=".269"/></filter><filter height="1.366" y="-.183" width="1.044" x="-.022"  class="B"><feGaussianBlur stdDeviation=".417"/></filter></defs><g transform="matrix(-1.931216 0 0 1.931216 -587.71168 -1169.1028)"><path d="M-378.416 669.61l24.044 6.723" fill="none" stroke="#000" stroke-width=".365" stroke-opacity=".912"/><path d="M-374.378 689.595l3.493.715s1.185 4.714 2.745 6.533 3.856 2.882 6.076 3.764c2.02.803 5.152-.217 6.352 1.481.296.418-.403.452-.476.959-.012.085-.048.174-.025.257.09.316.714.578.62.893-.083.278-.676.195-.886.396-.062.06-.097.085-.116.169-.105.471-.024 1.301-.024 1.301-.025.419-.559.589-1.258.071-2.521-1.742-2.675-2.833-3.814-4.196-.29-.346-6.327-2.307-7.295-3.874-1.948-3.153-4.804-4.822-5.392-8.47zm7.519.313c-.217-1.037 3.081.784 3.081.784s.345 2.154 1.189 2.787c2.251 1.687 5.575 1.03 8.393 1.225 1.595.111 3.246-.314 4.813-.11.519.068.711.576-.468 1.503 0 0-.182.095-.103.26.135.28.808.379.881.681.097.403-.393.796-.764.98 0 0-.276.114-.126.364.091.151.183.733.352 1.341.166.596-.753.591-1.328-.065 0 0-2.321-2.604-3.28-3.141-2.303-1.292-6.703-.13-9.458-1.892-1.701-1.088-2.778-2.796-3.18-4.719z" fill="#f5951a" stroke="#f5951a" class="C"/><path d="M-392.959 658.794c7.372-11.716 15.648-20.349 18.563-43.191.712-5.581 5.794 1.433 4.489 9.69-.023.143.255.4.353.207 2.154-4.248 3.339 1.35 3.339 1.35s2.618 4.522-.507 12.286c-.091.226.05.419.322.352.758-.186 2.801-1.574 3.048 1.248 1.252 14.257-6.029 15.808-9.148 23.627z" fill="#fff"/><path d="M-414.043 660.365c1.263-.148 8.477.219 8.477.219l-3.608 8.303s-3.386-1.983-5.391-4.529c-2.59-3.204-.452-3.879.522-3.993z" fill="#f5951a" stroke="#f5951a" class="C"/><path d="M-325.395 680.434s6.734-2.483 9.33-5.358c.56-.62 1.174-1.924-.501-2.273-.259-.054-.627.452-.876.274-.329-.236-.21-.957.086-1.233.817-.759 4.999-1.469 5.284-3.226.566-.392 1.435-1.474-.692-1.711 0 0-1.398-.067-1.779-.32-.169-.112-.143-.202-.03-.37 1.281-1.898 3.549-4.18 3.549-4.18 2.113-2.073 1.209-3.249-.826-2.49l-14.56 6.477c-10.755.006-26.048 6.65-40.511-1.555-8.259-4.686-16.633-6.201-16.633-6.201-20.973-3.864-27.257 3.723-26.066 11.601 0 0-.05 7.4 14.511 15.133 8.383 4.452 57.05 14.465 69.715-4.568z" fill="#fff"/><path d="M-394.567 657.259c8.295-.035 13.099 1.253 26.622 8.235 11.289 5.829 21.397 2.955 37.957 1.074" fill="none" stroke="#000" stroke-width=".165" stroke-opacity=".471" filter="url(#C)" class="D E"/><path d="M-378.416 669.61c-1.919 1.915-.988 3.056-.071 3.792 3.043 2.441 11.518 6.513 24.115 2.932 9.301-7.013 15.686-16.281 16.224-25.067.005-5.882-1.51-4.254-2.923-3.873-.631.17-1.163-.197-.731-.658 3.44-3.667 2.102-14.681 2.102-14.681-.284-1.742-.367-5.168-3.052-1.47-.177.244-.622.421-.585-.146.361-5.561.285-7.664-.404-11.288-.573-3.017-2.516-4.132-3.616-.698-5.661 21.638-19.455 39.579-31.06 51.157z" fill="#fff"/><g fill="#3e3f42" class="D"><ellipse cx="-305.882" cy="635.052" rx="2.919" ry="3.583" transform="matrix(.992254 -.124229 -.146373 .989229 0 0)" stroke="#474747" stroke-width=".075" paint-order="fill markers stroke"/><path d="M-374.397 615.602c.712-5.581 5.794 1.433 4.489 9.69-.023.143.255.4.353.207 2.154-4.248 3.339 1.35 3.339 1.35s2.618 4.522-.507 12.286c-.091.226.05.419.322.352.758-.186 2.801-1.574 3.048 1.248 2.844 9.604-6.872 19.468-6.872 19.468-10.947-4.612 7.644-26.348-13.991-14.435-.814.448.707-1.313 1.074-2.181.678-1.602 2.7-4.752 4.825-10.645 1.514-4.198 3.375-13.322 3.919-17.339z" stroke="#3f3f3f" class="C"/></g><path d="M-357.097 642.386c-.44.893-2.27 2.952-1.522 2.551 11.695-6.268 12.562 22.697 14.703 21.192.329-.231 5.937-8.102 5.856-14.941.005-5.882-1.51-4.254-2.923-3.873-.631.17-1.163-.197-.731-.658 3.44-3.667 2.102-14.681 2.102-14.681-.284-1.742-.367-5.168-3.052-1.47-.177.244-.622.421-.585-.146.361-5.561.285-7.664-.404-11.288-.573-3.017-2.516-4.132-3.616-.698-4.214 14.507-6.045 16.327-9.829 24.012z" fill="#3e3f42" stroke="#3e3f42" class="C"/><g class="D"><path d="M-378.804 670.23c-4.266 4.505 14.664 10.178 24.431 6.103" fill="none" stroke="#dad0cc" stroke-width=".565" filter="url(#D)" class="E"/><path d="M-316.065 675.076c.56-.62 1.174-1.924-.501-2.273-.259-.054-.627.452-.876.274-.329-.236-.21-.957.086-1.233.817-.759 4.999-1.469 5.284-3.226.566-.392 1.435-1.474-.692-1.711 0 0-1.398-.067-1.779-.32-.169-.112-.143-.202-.03-.37 1.281-1.898 3.549-4.18 3.549-4.18 2.113-2.073 1.209-3.249-.826-2.49l-13.098 5.673c-8.888 3.85 6.102 6.244 4.61 12.858 1.687-.084 3.096-1.885 4.273-3.002z" fill="#3f3f3f" stroke="#e9deda" stroke-width=".066"/></g></g></svg>