<svg xmlns="http://www.w3.org/2000/svg" viewBox="0 0 228 280" height="1058.268" width="861.732" xmlns:v="https://vecta.io/nano"><style><![CDATA[.B{color-interpolation-filters:sRGB}.C{fill:#3e3f42}.D{stroke-width:.143}.E{stroke-linejoin:round}]]></style><defs><filter height="1.08" y="-.04" width="1.241" x="-.12"  class="B"><feGaussianBlur stdDeviation=".342"/></filter><filter height="1.365" y="-.182" width="2" x="-.5"  class="B"><feGaussianBlur stdDeviation="1.56"/></filter><filter height="1.2" y="-.1" width="1.027" x="-.014"  class="B"><feGaussianBlur stdDeviation=".477"/></filter><filter height="1.172" y="-.086" width="1.051" x="-.026"  class="B"><feGaussianBlur stdDeviation=".269"/></filter><filter height="1.366" y="-.183" width="1.044" x="-.022" id="E" class="B"><feGaussianBlur stdDeviation=".417"/></filter></defs><g transform="translate(0 70)"><path d="M208.641 27.618c-2.745.533-17.614 6.115-17.614 6.115l13.099 14.987s5.771-6.414 8.273-13.086c3.288-8.44-1.641-8.428-3.757-8.017z" fill="#f5951a" stroke="#f5951a" class="D"/><g fill="#fff"><path d="M173.269 87.848s10.453 16.134 8.635 37.722-32.143 68.141-66.809 74.99c-23.398 4.623-4.13-13.145-2.881-14.825 0 0 .393-.574.095-.798-1.134-.855-3.449 1.378-4.298.241-2.686-3.594.788-9.185 4.097-12.995.167-.193.49-.484.181-.703-.279-.197-1.225-.161-1.225-.161-4.118.147-6.813-1.084-2.129-5.825 13.027-13.186 15.426-17.04 21.853-24.826 1.728-2.093 2.259-13.4-6.508-42.26zm-56.22 9.035l-36.957-6.106c-3.126 17.803-18.746 32.499-29.533 52.064-2.107 3.822 9.69 6.859 19.77-3.92.559-.658.991-.474.909-.057-1.429 13.373 16.877-2.338 18.634-9.942.035-.15.227-.65.582-.099.907 1.406-.197 4.493.551 5.756 7.956 10.772 24.268-19.815 26.043-37.696z"/><path d="M40.007 67.599s-15.113-6.27-19.642-13.275c-.978-1.512-1.834-4.495 1.848-4.66.569-.026 1.178 1.177 1.768.884.781-.388.777-1.963.241-2.651-1.475-1.896-10.123-4.844-10.123-8.677-1.069-1.029-2.543-3.629 2.06-3.399 0 0 2.995.338 3.893-.067.399-.18.374-.38.19-.777-2.07-4.475-6.107-10.109-6.107-10.109-3.778-5.135-1.451-7.323 2.614-5.01l28.726 18.782c20.427-.739 59.945 19.06 91.787 2.67l23.862-12.373c35.97-16.138 45.18 11.931 46.432 22.003 0 0 2.888 20.779-37.112 41.628-16.352 8.523-85.711 21.194-130.437-24.968z"/></g><g stroke="#3e3f42"><path d="M184.657 47.68c-6.096-.399-6.335.68-3.375 1.955 3.077 1.325 7.293 2.328 10.432-2.553 2.625-4.082-2.004-5.98-3.683-2.864-.919 1.707.079 3.688-3.374 3.462z" stroke-width=".134" class="C E"/><path d="M-355.05 756.441c10.059 5.94 36.254 8.247 52.165-1.019" opacity=".97" fill="none" stroke-width=".165" stroke-opacity=".73" filter="url(#E)" transform="matrix(-2.198701 0 0 2.198701 -602.02174 -1575.0412)"/></g><g class="D"><g class="E"><path d="M115.015 200.67c-23.398 4.623-4.13-13.145-2.881-14.825 0 0 .393-.574.095-.798-1.134-.855-3.449 1.378-4.298.241-2.686-3.594.788-9.185 4.097-12.995.167-.193.49-.484.181-.703-.279-.197-1.225-.161-1.225-.161-4.118.147-6.813-1.084-2.129-5.825 8.151-7.727 23.907-29.167 22.763-24.487-6.903 28.242 36.66 20.655 21.009 37.059-8.24 8.636-20.218 17.36-37.61 22.494z" fill="#3f3f3f" stroke="#e9deda"/><path d="M40.007 67.599s-15.113-6.27-19.642-13.275c-.978-1.512-1.834-4.495 1.848-4.66.569-.026 1.178 1.177 1.768.884.781-.388.777-1.963.241-2.651-1.475-1.896-10.123-4.844-10.123-8.677-1.069-1.029-2.543-3.629 2.06-3.399 0 0 2.995.338 3.893-.067.399-.18.374-.38.19-.777-2.07-4.475-6.107-10.109-6.107-10.109-3.778-5.135-1.451-7.323 2.614-5.01l28.726 18.782c-10.885 9.524 24.902 60.857-5.468 28.96z" stroke="#3e3f42" class="C"/></g><path d="M107.732 124.379c7.228-7.867-35.064-12.031-31.049-22.695-6.534 13.031-15.337 21.591-26.124 41.157-2.107 3.822 9.69 6.859 19.77-3.92.559-.658.991-.474.909-.057-1.429 13.373 16.877-2.338 18.634-9.942.035-.15.227-.65.582-.099.907 1.406-.197 4.493.551 5.756 3.411 5.773 11.77 1.091 16.726-10.2z" stroke="#e9deda" class="C"/></g></g></svg>