<svg xmlns="http://www.w3.org/2000/svg" viewBox="0 0 297 210" height="793.701" width="1122.52" xmlns:v="https://vecta.io/nano"><style><![CDATA[.B{stroke-linecap:round}.C{stroke-linejoin:round}.D{stroke-width:2.584}.E{fill:#8de05b}.F{stroke:#15e02d}.G{color-interpolation-filters:sRGB}.H{stroke-width:2.831}.I{stroke-dasharray:0, 2.58368456000000002, 5.16736912999999998, 7.75105368000000006, 10.33473824000000008, 12.91842280999999915, 15.50210736999999916, 18.08579191999999836, 20.66947649000000098, 23.25316104999999922, 25.83684561999999829, 28.42053016999999926, 31.00421473000000105, 33.58789929000000285, 36.17158385999999837}]]></style><defs><filter height="1.08" y="-.04" width="1.241" x="-.12"  class="G"><feGaussianBlur stdDeviation=".342"/></filter><filter height="1.365" y="-.182" width="2" x="-.5"  class="G"><feGaussianBlur stdDeviation="1.56"/></filter></defs><g stroke="#0064bd" class="C"><circle cx="135.556" cy="11.369" r=".824" fill="#0064bd" stroke-width="1.066"/><g fill="none" class="B"><path d="M70.345 153.911c30.998 47.036 76.851 45.184 76.851 45.184 15.442 1.781 83.264-5.305 96.493-78.292" class="D"/><path d="M160.531 10.67c60.922 8.597 83.195 56.602 84.289 86.46M61.358 74.807c11.949-33.503 39.101-58.148 72.01-62.787" class="H"/></g></g><circle cx="150.986" cy="104.486" r="94.096" fill="#0064e8" stroke="#0055bd" stroke-dasharray="0, 2.83143513, 5.66287027, 8.4943054, 11.32574055, 14.15717567, 16.98861082, 19.82004595, 22.65148109, 25.48291622, 28.31435135, 31.14578649, 33.97722162, 36.80865676, 39.64009189" paint-order="stroke fill markers" class="B C H"/><path d="M196.217 25.278c-70.796.828-133.322 161.279-16.32 152.582 23.078-1.715 67.8-41.764 63.739-74.087-8.082-64.324-47.419-78.495-47.419-78.495z" opacity=".374" fill="#01bbef" stroke="#01bbef" stroke-width="1.873"/><g class="C B E F"><path d="M209.514 160.421c2.223-.928 1.912-5.534 4.84-8.54 3.97-4.076 11.86-9.365 11.966-11.694.294-6.486-1.219-9.129 1.756-13.378 1.567-2.238 3.87-1.136 5.686-3.177 1.238-1.392.416-4.233 2.09-5.184 1.765-1.003 4.164-1.035 5.267.669 1.395 2.153-4.962 28.188-16.889 38.461-3.856 3.321-6.431 2.653-8.386 3.555-2.987 1.378-3.548 3.423-5.493 2.382-.92-.493-1.799-2.692-.836-3.094zM185.1 174.374c3.175-9.34 9.939-15.564 7.422-21.49-3.095-7.287-1.355-3.72.721-1.527 7.512-6.7 13.023-23.037 10.585-26.135-3.816-4.85-5.458-10.736-12.216-14.185-1.983-1.012-.013-.65 2.38-.802 3.463-.22 6.75 5.562 10.643 10.937 2.82 3.893 4.69-2.288 3.813-3.872-2.165-3.909 5.78-5.673-3.031-12.144l8.863-2.341c11.178-2.953 7.438 6.023 13.127 10.284 4.449 3.332 8.152.981 6.884-1.572-1.772-3.568-2.397-5.881-.277-5.618 3.754.464 4.367-1.764 5.084-3.902 2.694-38.525-20.725-63.728-42.881-76.728-8.683-3.317-14.23 5.989-21.904 10.564-5.13 3.058-9.701 3.939-13.327 3.412-4.528-.659-8.961-4.093-9.75-2.325-3.089 11.45 9.894 7.094 8.249 11.469-2.412 6.413-6.519 3.972-8.341 6.37-3.899 5.134.1 10.637-1.122 16.295-1.223 5.666-8.087.57-9.031 5.366-2.558 12.994.905 13.416 5.781 4.03 3.531-5.208 8.136 4.521 12.072 5.967 4.334 1.592 10.93-2.483 13.21 2.174 1.784 3.643 4.749 5.532.334 5.351l-10.2-.418-11.873-5.017c-8.25-2.89-15.638 9.883-12.04 14.465.521 6.368-6.375 14.658-1.589 17.224.783 7.436 5.038 12.735 11.622 13.378 7.678.75 14.493 6.168 14.966 12.792 2.076 29.067 19.185 35.757 21.822 27.999zM100.43 28.486c-3.921 3.531 4.069 4.533 5.574 13.459 0 0 1.567 5.794 4.013 6.522 3.131.932 9.342 3.719 8.863-4.181-.398-6.551 3.562-7.651 2.306-13.161-.953-4.182 4.033-7.808 1.038-11.922-2.655-3.648-12.818 1.201-21.794 9.283z" class="D I"/><path d="M134.766 41.276c2.541 2.843 3.884-1.884 5.853-1.923 2.13-.043-.694-7.817-7.358-3.094l-4.766.669c-4.328.607-3.129.997-.418 4.097 2.115 2.42 5.243-1.065 6.689.251z" stroke-width="1.876" stroke-dasharray="0, 1.87582577000000006, 3.75165156000000000, 5.62747732999999961, 7.50330311000000005, 9.37912889000000050, 11.25495465999999922, 13.13078044000000055, 15.00660620999999928, 16.88243200000000144, 18.75825777000000016, 20.63408356000000055, 22.50990932999999927, 24.38573510000000155, 26.26156088999999838"/><path d="M70.01 132.394c4.129-3.427-1.579-9.819.828-13.716.455-.736 1.772-.577 2.247-1.301 1.327-2.024.828-7.213.828-7.213 1.114-9.035 8.966-4.806 9.696-8.75l1.182-6.385s1.556-5.854 3.547-7.804c5.844-5.724 20.116-.17 21.757-11.351.33-2.251-3.488-3.235-4.165-5.407-.732-2.346 1.857-5.397.382-7.363-.812-1.082-3.081 1.955-3.95-.932-.476-1.58.244-3.136-.78-3.798-2.814-1.821-6.612-2.248-8.986.118-1.453 1.448.036 4.545-.946 6.503-1.075 2.142-5.084 5.084-5.084 5.084-4.58-1.113-3.101 3.528-4.204 3.346-1.368-.226.906-3.859-2.891-5.12-.189-2.917-3.09-7.005 0-8.277 6.127-2.522 2.096-7.558 8.632-4.612-2.085-5.686 4.573-26.144-6.385-11.588-23.367 27.88-28.833 78.362-17.855 86.672 0 0 4.28 3.443 6.149 1.892zm39.257 52.5c1.393.824 2.164-14.874 2.72-21.284.151-1.744-2.521-2.596-3.074-4.257-1.444-4.339 2.904-10.392-.237-13.716-.733-.776-2.466.546-3.193-.236-1.824-1.964 2.567-6.888 0-8.041-3.204-1.438-7.482 8.032-16.554 3.074-19.507-10.661-16.168 2.555-17.618 8.986-1.137 5.045 8.784 7.949 12.652 12.416 4.19 4.839 5.81 11.033 11.351 15.49 4.103 3.3 9.398 4.875 13.953 7.568z" class="D I"/></g></svg>