<?xml version="1.0" encoding="UTF-8" standalone="no"?>
<svg
   xmlns:dc="http://purl.org/dc/elements/1.1/"
   xmlns:cc="http://creativecommons.org/ns#"
   xmlns:rdf="http://www.w3.org/1999/02/22-rdf-syntax-ns#"
   xmlns:svg="http://www.w3.org/2000/svg"
   xmlns="http://www.w3.org/2000/svg"
   xmlns:sodipodi="http://sodipodi.sourceforge.net/DTD/sodipodi-0.dtd"
   xmlns:inkscape="http://www.inkscape.org/namespaces/inkscape"
   viewBox="0 0 234.55912 225.8748"
   height="853.70099"
   width="886.52002"
   version="1.1"
   id="svg36"
   sodipodi:docname="mundo_sticker.svg"
   inkscape:version="0.92.3 (2405546, 2018-03-11)">
  <metadata
     id="metadata40">
    <rdf:RDF>
      <cc:Work
         rdf:about="">
        <dc:format>image/svg+xml</dc:format>
        <dc:type
           rdf:resource="http://purl.org/dc/dcmitype/StillImage" />
        <dc:title />
      </cc:Work>
    </rdf:RDF>
  </metadata>
  <sodipodi:namedview
     pagecolor="#ffffff"
     bordercolor="#666666"
     borderopacity="1"
     objecttolerance="10"
     gridtolerance="10"
     guidetolerance="10"
     inkscape:pageopacity="0"
     inkscape:pageshadow="2"
     inkscape:window-width="1366"
     inkscape:window-height="678"
     id="namedview38"
     showgrid="false"
     inkscape:zoom="0.59468239"
     inkscape:cx="874.95736"
     inkscape:cy="334.24841"
     inkscape:window-x="0"
     inkscape:window-y="27"
     inkscape:window-maximized="1"
     inkscape:current-layer="svg36" />
  <style
     id="style2"><![CDATA[.B{stroke-linecap:round}.C{stroke-linejoin:round}.D{stroke-width:2.584}.E{fill:#8de05b}.F{stroke:#15e02d}.G{color-interpolation-filters:sRGB}.H{stroke-width:2.831}.I{stroke-dasharray:0, 2.58368456000000002, 5.16736912999999998, 7.75105368000000006, 10.33473824000000008, 12.91842280999999915, 15.50210736999999916, 18.08579191999999836, 20.66947649000000098, 23.25316104999999922, 25.83684561999999829, 28.42053016999999926, 31.00421473000000105, 33.58789929000000285, 36.17158385999999837}]]></style>
  <defs
     id="defs12">
    <filter
       height="1.08"
       y="-0.039999999"
       width="1.2410001"
       x="-0.12"
       class="G"
       id="filter6"
       style="color-interpolation-filters:sRGB">
      <feGaussianBlur
         stdDeviation=".342"
         id="feGaussianBlur4" />
    </filter>
    <filter
       height="1.365"
       y="-0.182"
       width="2"
       x="-0.5"
       class="G"
       id="filter10"
       style="color-interpolation-filters:sRGB">
      <feGaussianBlur
         stdDeviation="1.56"
         id="feGaussianBlur8" />
    </filter>
  </defs>
  <ellipse
     style="fill:#f4eed7;stroke:none;stroke-width:1.1796664;stroke-linecap:round;stroke-linejoin:round;stroke-dasharray:0, 3.34014882000000002, 6.68029764999999998, 10.02044646999999955, 13.36059531000000078, 16.70074410999999870, 20.04089296000000076, 23.38104176999999950, 26.72119059999999990, 30.06133943000000031, 33.40148823999999905, 36.74163707999999673, 40.08178588999999903, 43.42193472000000298, 46.76208352999999818;paint-order:stroke fill markers;fill-opacity:1"
     cx="115.64101"
     cy="112.67416"
     class="B C H"
     id="circle24-3"
     rx="111.44769"
     ry="110.55786" />
  <g
     class="C"
     id="g22"
     style="stroke:#0064bd;stroke-linejoin:round"
     transform="translate(-34.740346,6.3397032)">
    <circle
       cx="135.556"
       cy="11.369"
       r="0.824"
       id="circle14"
       style="fill:#0064bd;stroke-width:1.06599998" />
    <g
       class="B"
       id="g20"
       style="fill:none;stroke-linecap:round">
      <path
         d="m 70.345,153.911 c 30.998,47.036 76.851,45.184 76.851,45.184 15.442,1.781 83.264,-5.305 96.493,-78.292"
         class="D"
         id="path16"
         inkscape:connector-curvature="0"
         style="stroke-width:2.58400011" />
      <path
         d="m 160.531,10.67 c 60.922,8.597 83.195,56.602 84.289,86.46 M 61.358,74.807 C 73.307,41.304 100.459,16.659 133.368,12.02"
         class="H"
         id="path18"
         inkscape:connector-curvature="0"
         style="stroke-width:2.83100009" />
    </g>
  </g>
  <circle
     cx="116.24567"
     cy="110.82542"
     r="94.096001"
     class="B C H"
     id="circle24"
     style="fill:#0064e8;stroke:#0055bd;stroke-width:2.83100009;stroke-linecap:round;stroke-linejoin:round;stroke-dasharray:0, 2.83143513, 5.66287027, 8.4943054, 11.32574055, 14.15717567, 16.98861082, 19.82004595, 22.65148109, 25.48291622, 28.31435135, 31.14578649, 33.97722162, 36.80865676, 39.64009189;paint-order:stroke fill markers" />
  <path
     d="m 161.47662,31.617756 c -70.795966,0.828 -133.321966,161.278664 -16.32,152.581664 23.078,-1.715 67.8,-41.764 63.739,-74.087 -8.082,-64.323664 -47.419,-78.494664 -47.419,-78.494664 z"
     id="path26"
     inkscape:connector-curvature="0"
     style="opacity:0.37400004;fill:#01bbef;stroke:#01bbef;stroke-width:1.87300003" />
  <g
     class="C B E F"
     id="g34"
     style="fill:#8de05b;stroke:#15e02d;stroke-linecap:round;stroke-linejoin:round"
     transform="translate(-34.740346,6.3397032)">
    <path
       d="m 209.514,160.421 c 2.223,-0.928 1.912,-5.534 4.84,-8.54 3.97,-4.076 11.86,-9.365 11.966,-11.694 0.294,-6.486 -1.219,-9.129 1.756,-13.378 1.567,-2.238 3.87,-1.136 5.686,-3.177 1.238,-1.392 0.416,-4.233 2.09,-5.184 1.765,-1.003 4.164,-1.035 5.267,0.669 1.395,2.153 -4.962,28.188 -16.889,38.461 -3.856,3.321 -6.431,2.653 -8.386,3.555 -2.987,1.378 -3.548,3.423 -5.493,2.382 -0.92,-0.493 -1.799,-2.692 -0.836,-3.094 z M 185.1,174.374 c 3.175,-9.34 9.939,-15.564 7.422,-21.49 -3.095,-7.287 -1.355,-3.72 0.721,-1.527 7.512,-6.7 13.023,-23.037 10.585,-26.135 -3.816,-4.85 -5.458,-10.736 -12.216,-14.185 -1.983,-1.012 -0.013,-0.65 2.38,-0.802 3.463,-0.22 6.75,5.562 10.643,10.937 2.82,3.893 4.69,-2.288 3.813,-3.872 -2.165,-3.909 5.78,-5.673 -3.031,-12.144 l 8.863,-2.341 c 11.178,-2.953 7.438,6.023 13.127,10.284 4.449,3.332 8.152,0.981 6.884,-1.572 -1.772,-3.568 -2.397,-5.881 -0.277,-5.618 3.754,0.464 4.367,-1.764 5.084,-3.902 2.694,-38.525 -20.725,-63.728 -42.881,-76.728 -8.683,-3.317 -14.23,5.989 -21.904,10.564 -5.13,3.058 -9.701,3.939 -13.327,3.412 -4.528,-0.659 -8.961,-4.093 -9.75,-2.325 -3.089,11.45 9.894,7.094 8.249,11.469 -2.412,6.413 -6.519,3.972 -8.341,6.37 -3.899,5.134 0.1,10.637 -1.122,16.295 -1.223,5.666 -8.087,0.57 -9.031,5.366 -2.558,12.994 0.905,13.416 5.781,4.03 3.531,-5.208 8.136,4.521 12.072,5.967 4.334,1.592 10.93,-2.483 13.21,2.174 1.784,3.643 4.749,5.532 0.334,5.351 l -10.2,-0.418 -11.873,-5.017 c -8.25,-2.89 -15.638,9.883 -12.04,14.465 0.521,6.368 -6.375,14.658 -1.589,17.224 0.783,7.436 5.038,12.735 11.622,13.378 7.678,0.75 14.493,6.168 14.966,12.792 2.076,29.067 19.185,35.757 21.822,27.999 z M 100.43,28.486 c -3.921,3.531 4.069,4.533 5.574,13.459 0,0 1.567,5.794 4.013,6.522 3.131,0.932 9.342,3.719 8.863,-4.181 -0.398,-6.551 3.562,-7.651 2.306,-13.161 -0.953,-4.182 4.033,-7.808 1.038,-11.922 -2.655,-3.648 -12.818,1.201 -21.794,9.283 z"
       class="D I"
       id="path28"
       inkscape:connector-curvature="0"
       style="stroke-width:2.58400011;stroke-dasharray:0, 2.58368456, 5.16736913, 7.75105368, 10.33473824, 12.91842281, 15.50210737, 18.08579192, 20.66947649, 23.25316105, 25.83684562, 28.42053017, 31.00421473, 33.58789929, 36.17158386" />
    <path
       d="m 134.766,41.276 c 2.541,2.843 3.884,-1.884 5.853,-1.923 2.13,-0.043 -0.694,-7.817 -7.358,-3.094 l -4.766,0.669 c -4.328,0.607 -3.129,0.997 -0.418,4.097 2.115,2.42 5.243,-1.065 6.689,0.251 z"
       id="path30"
       inkscape:connector-curvature="0"
       style="stroke-width:1.87600005;stroke-dasharray:0, 1.87582577, 3.75165156, 5.62747733, 7.50330311, 9.37912889, 11.25495466, 13.13078044, 15.00660621, 16.882432, 18.75825777, 20.63408356, 22.50990933, 24.3857351, 26.26156089" />
    <path
       d="m 70.01,132.394 c 4.129,-3.427 -1.579,-9.819 0.828,-13.716 0.455,-0.736 1.772,-0.577 2.247,-1.301 1.327,-2.024 0.828,-7.213 0.828,-7.213 1.114,-9.035 8.966,-4.806 9.696,-8.75 l 1.182,-6.385 c 0,0 1.556,-5.854 3.547,-7.804 5.844,-5.724 20.116,-0.17 21.757,-11.351 0.33,-2.251 -3.488,-3.235 -4.165,-5.407 -0.732,-2.346 1.857,-5.397 0.382,-7.363 -0.812,-1.082 -3.081,1.955 -3.95,-0.932 -0.476,-1.58 0.244,-3.136 -0.78,-3.798 -2.814,-1.821 -6.612,-2.248 -8.986,0.118 -1.453,1.448 0.036,4.545 -0.946,6.503 -1.075,2.142 -5.084,5.084 -5.084,5.084 -4.58,-1.113 -3.101,3.528 -4.204,3.346 -1.368,-0.226 0.906,-3.859 -2.891,-5.12 -0.189,-2.917 -3.09,-7.005 0,-8.277 6.127,-2.522 2.096,-7.558 8.632,-4.612 C 86.018,49.73 92.676,29.272 81.718,43.828 58.351,71.708 52.885,122.19 63.863,130.5 c 0,0 4.28,3.443 6.149,1.892 z m 39.257,52.5 c 1.393,0.824 2.164,-14.874 2.72,-21.284 0.151,-1.744 -2.521,-2.596 -3.074,-4.257 -1.444,-4.339 2.904,-10.392 -0.237,-13.716 -0.733,-0.776 -2.466,0.546 -3.193,-0.236 -1.824,-1.964 2.567,-6.888 0,-8.041 -3.204,-1.438 -7.482,8.032 -16.554,3.074 -19.507,-10.661 -16.168,2.555 -17.618,8.986 -1.137,5.045 8.784,7.949 12.652,12.416 4.19,4.839 5.81,11.033 11.351,15.49 4.103,3.3 9.398,4.875 13.953,7.568 z"
       class="D I"
       id="path32"
       inkscape:connector-curvature="0"
       style="stroke-width:2.58400011;stroke-dasharray:0, 2.58368456, 5.16736913, 7.75105368, 10.33473824, 12.91842281, 15.50210737, 18.08579192, 20.66947649, 23.25316105, 25.83684562, 28.42053017, 31.00421473, 33.58789929, 36.17158386" />
  </g>
</svg>
