<svg xmlns="http://www.w3.org/2000/svg" viewBox="0 0 238 131" height="495.118" width="899.528" xmlns:v="https://vecta.io/nano"><style><![CDATA[.B{color-interpolation-filters:sRGB}]]></style><defs><filter height="1.08" y="-.04" width="1.241" x="-.12"  class="B"><feGaussianBlur stdDeviation=".342"/></filter><filter height="1.365" y="-.182" width="2" x="-.5"  class="B"><feGaussianBlur stdDeviation="1.56"/></filter><filter height="2.398" y="-.699" width="2.322" x="-.661" id="C" class="B"><feGaussianBlur stdDeviation="5.779"/></filter><filter height="2.533" y="-.766" width="1.885" x="-.443" id="D" class="B"><feGaussianBlur stdDeviation="5.779"/></filter><filter height="3.015" y="-1.008" width="1.86" x="-.43" id="E" class="B"><feGaussianBlur stdDeviation="5.779"/></filter><filter height="3.994" y="-1.497" width="2.29" x="-.645" id="F" class="B"><feGaussianBlur stdDeviation="5.779"/></filter><filter height="3.416" y="-1.208" width="1.722" x="-.361" id="G" class="B"><feGaussianBlur stdDeviation="5.779"/></filter><filter height="2.592" y="-.796" width="1.883" x="-.441" id="H" class="B"><feGaussianBlur stdDeviation="5.779"/></filter><filter height="1.814" y="-.407" width="2.043" x="-.522"  class="B"><feGaussianBlur stdDeviation="7.209"/></filter><filter height="2.066" y="-.533" width="2.938" x="-.969"  class="B"><feGaussianBlur stdDeviation="7.344"/></filter><filter height="3.322" y="-1.161" width="1.883" x="-.441"  class="B"><feGaussianBlur stdDeviation="7.451"/></filter><filter height="3.525" y="-1.262" width="1.829" x="-.414"  class="B"><feGaussianBlur stdDeviation="7.92"/></filter><filter height="2.118" y="-.559" width="1.791" x="-.396"  class="B"><feGaussianBlur stdDeviation="6.472"/></filter></defs><g opacity=".888" transform="translate(0 -79)" stroke-linejoin="round"><path d="M121.161 86.557c-16.045.982-30.608 9.272-39.345 22.404-1.568 2.361-3.843 6.79-4.774 9.306-.362 1-.689 1.844-.724 1.879-.017.034-.569-.138-1.206-.379-2.413-.948-3.757-1.189-6.428-1.224-1.827-.017-2.878.069-3.947.293-7.273 1.568-12.805 7.48-13.908 14.856-.138.948-.293 1.741-.327 1.775s-1-.069-2.154-.207c-6.066-.793-11.857-.396-17.63 1.189-17.458 4.774-26.799 19.319-21.129 32.934 2.499 5.997 8.41 11.564 15.666 14.752 5.463 2.396 10.875 3.481 17.234 3.464 6.566 0 12.391-1.206 17.648-3.654 1.206-.551 1.741-.724 1.792-.569.034.121.448 1 .931 1.965a25.61 25.61 0 0 0 15.114 13.236c2.981 1 4.757 1.275 8.203 1.275 3.257 0 4.877-.241 7.669-1.137 3.809-1.224 7.135-3.206 10.03-5.963l1.155-1.103 1.344.551c4.119 1.723 7.221 2.464 11.564 2.757 7.256.5 14.787-1.43 20.543-5.256.638-.431 1.241-.776 1.31-.776.086 0 .707.483 1.361 1.086 6.428 5.687 13.443 8.876 22.404 10.151 2.568.362 8.669.276 11.547-.172 4.653-.724 8.134-1.81 12.236-3.826 4.412-2.154 7.049-4.033 10.444-7.393 1.189-1.189 2.723-2.913 3.412-3.826l1.224-1.654 1.947.086c4.688.207 9.72-1.379 13.563-4.24 7.6-5.687 10.34-15.338 6.825-24.093-1.206-3.033-3.998-6.566-6.842-8.686-2.533-1.879-5.877-3.326-9.031-3.878-2.051-.362-5.411-.362-7.6 0l-1.723.293-1.844-1.81c-1.861-1.827-4.705-4.067-6.928-5.463-3.688-2.292-9.151-4.395-13.701-5.274l-2.533-.5c-.017 0-.19-1.017-.379-2.24-1.568-10.168-6.29-19.199-13.925-26.644C153.027 93.813 143.961 89.16 134 87.35c-4.136-.741-8.807-1.034-12.839-.793z" fill="#fff" stroke="#fff" stroke-linecap="round" stroke-dasharray="121.85420313, 121.85420313" stroke-width="4.2"/><g fill="none" stroke="#cfafe5" stroke-width="1.965"><path d="M64.906 140.547c6.988 5.675 13.991 6.139 21.497-5.374" filter="url(#F)"/><path d="M105.007 115.742c16.152-29.183 32.246-2.894 32.246-2.894" filter="url(#E)"/><path d="M193.063 152.949c21.991.381 22.117 9.706 20.257 19.844" filter="url(#C)"/><path d="M31.833 165.352c13.386 17.16 32.093 12.199 38.447 3.721" filter="url(#G)"/><path d="M80.202 171.139c3.56 14.871 11.412 23.163 31.419 12.816" filter="url(#H)"/><path d="M122.433 162.315c13.001 8.051 24.415 8.408 31.332-13.028" opacity="1" filter="url(#D)"/></g></g></svg>