<svg xmlns="http://www.w3.org/2000/svg" viewBox="0 0 238 131" height="495.118" width="899.528" xmlns:v="https://vecta.io/nano"><style><![CDATA[.B{color-interpolation-filters:sRGB}]]></style><defs><filter height="1.08" y="-.04" width="1.241" x="-.12"  class="B"><feGaussianBlur stdDeviation=".342"/></filter><filter height="1.365" y="-.182" width="2" x="-.5"  class="B"><feGaussianBlur stdDeviation="1.56"/></filter><filter height="2.398" y="-.699" width="2.322" x="-.661"  class="B"><feGaussianBlur stdDeviation="5.779"/></filter><filter height="2.533" y="-.766" width="1.885" x="-.443"  class="B"><feGaussianBlur stdDeviation="5.779"/></filter><filter height="3.015" y="-1.008" width="1.86" x="-.43"  class="B"><feGaussianBlur stdDeviation="5.779"/></filter><filter height="3.994" y="-1.497" width="2.29" x="-.645"  class="B"><feGaussianBlur stdDeviation="5.779"/></filter><filter height="3.416" y="-1.208" width="1.722" x="-.361"  class="B"><feGaussianBlur stdDeviation="5.779"/></filter><filter height="2.592" y="-.796" width="1.883" x="-.441"  class="B"><feGaussianBlur stdDeviation="5.779"/></filter><filter height="1.814" y="-.407" width="2.043" x="-.522" id="I" class="B"><feGaussianBlur stdDeviation="7.209"/></filter><filter height="2.066" y="-.533" width="2.938" x="-.969" id="J" class="B"><feGaussianBlur stdDeviation="7.344"/></filter><filter height="3.322" y="-1.161" width="1.883" x="-.441" id="K" class="B"><feGaussianBlur stdDeviation="7.451"/></filter><filter height="3.525" y="-1.262" width="1.829" x="-.414" id="L" class="B"><feGaussianBlur stdDeviation="7.92"/></filter><filter height="2.118" y="-.559" width="1.791" x="-.396" id="M" class="B"><feGaussianBlur stdDeviation="6.472"/></filter></defs><g opacity=".853" transform="translate(0 -79)"><path d="M125.299 83.234c-1.324.107-4.276.573-5.904.966-7.855 1.807-15.405 6.28-20.862 12.328-.751.841-1.413 1.521-1.485 1.521-.054 0-1.27-.59-2.702-1.288-5.529-2.72-10.306-3.9-16.479-4.115-11.236-.376-21.9 3.829-29.969 11.845-5.063 5.028-8.839 11.648-10.556 18.482-.34 1.342-.644 2.451-.68 2.487-.018.036-.895.286-1.932.59-6.763 1.897-12.99 5.636-18.035 10.843-5.958 6.137-9.68 13.652-11.021 22.258-.447 2.881-.447 8.982 0 11.719 1.521 9.268 5.582 17.158 12.023 23.349 7.747 7.443 17.463 11.344 28.162 11.344 4.938 0 9.393-.751 13.777-2.308 2.004-.716 6.101-2.773 8.159-4.079l1.807-1.163 2.129.519c6.423 1.574 13.437 1.521 19.753-.107.912-.233 1.163-.25 1.413-.054a167.29 167.29 0 0 1 2.183 1.628c5.385 4.044 11.809 6.656 18.858 7.676 2.415.34 8.481.286 10.986-.089 7.157-1.127 13.222-3.704 18.983-8.069l1.861-1.413.734.412 2.344 1.27c10.181 5.457 22.812 6.119 33.691 1.789 1.02-.412 2.165-.912 2.541-1.091.68-.358.734-.358 2.433-.054 2.487.447 9.948.447 12.489 0 11.522-2.022 21.22-8.284 27.554-17.82a40.58 40.58 0 0 0 3.722-37.502c-4.205-10.342-12.524-18.554-22.938-22.615-4.169-1.628-9.393-2.702-13.115-2.702h-1.449l-1.27-1.378c-.698-.751-2.147-2.129-3.238-3.06-6.459-5.529-14.439-8.874-22.991-9.608l-1.36-.125-.573-1.127c-3.382-6.495-9.608-12.757-16.353-16.443-6.745-3.668-14.94-5.403-22.687-4.813z" fill="#fff" stroke="#d6bae9" opacity="1" stroke-width=".018"/><g stroke-linejoin="round" stroke-linecap="round" stroke-width="2.465" stroke="#dab3ed" fill="none"><path transform="rotate(157.733 111.152 121.001)" d="M108.809 102.832c8.888-9.036 35.152-14.79 42.452 17.36" opacity=".93" filter="url(#L)"/><path d="M200.918 139.72c26.114 6.89 19.904 22.049 7.441 33.073" filter="url(#J)"/><path d="M101.699 190.156c18.894 10.925 33.253 7.522 40.514-9.095" filter="url(#K)"/><path d="M19.844 150.469c-10.35 30.635 12.766 45.019 30.592 42.168" filter="url(#I)"/><path transform="matrix(.699576 -.960804 .960804 .699576 -125.41879 97.96634)" d="M60.629 132.102c8.887-9.036 35.152-14.79 42.452 17.36" filter="url(#M)"/></g></g></svg>