<svg xmlns="http://www.w3.org/2000/svg" xmlns:xlink="http://www.w3.org/1999/xlink" viewBox="0 0 423 40" height="151.181" width="1598.74" xmlns:v="https://vecta.io/nano"><style><![CDATA[.B{color-interpolation-filters:sRGB}.C{fill-rule:evenodd}]]></style><defs><linearGradient id="A" gradientUnits="userSpaceOnUse"><stop offset="0" stop-color="#13bdb8"/><stop offset="1" stop-color="#34d4c0" stop-opacity="0"/></linearGradient><filter height="1.08" y="-.04" width="1.241" x="-.12"  class="B"><feGaussianBlur stdDeviation=".342"/></filter><filter height="1.365" y="-.182" width="2" x="-.5"  class="B"><feGaussianBlur stdDeviation="1.56"/></filter><filter height="1.2" y="-.1" width="1.027" x="-.014"  class="B"><feGaussianBlur stdDeviation=".477"/></filter><filter height="1.172" y="-.086" width="1.051" x="-.026"  class="B"><feGaussianBlur stdDeviation=".269"/></filter><filter height="1.366" y="-.183" width="1.044" x="-.022"  class="B"><feGaussianBlur stdDeviation=".417"/></filter><linearGradient spreadMethod="repeat" y2="17.286" x2="589.926" y1="197.881" x1="589.926" id="G" xlink:href="#A"/><linearGradient spreadMethod="repeat" y2="17.286" x2="189.928" y1="197.881" x1="189.928" id="H" xlink:href="#A"/><linearGradient spreadMethod="repeat" y2="17.286" x2="189.926" y1="197.881" x1="189.926" id="I" xlink:href="#A"/><linearGradient spreadMethod="repeat" y2="20.415" x2="693.057" y1="201.01" x1="693.057" id="J" xlink:href="#A"/><linearGradient spreadMethod="repeat" y2="20.415" x2="693.059" y1="201.01" x1="693.059" id="K" xlink:href="#A"/><linearGradient spreadMethod="repeat" y2="20.415" x2="854.19" y1="201.01" x1="854.19" id="L" xlink:href="#A"/><linearGradient spreadMethod="repeat" y2="20.415" x2="293.058" y1="201.01" x1="293.058" id="M" xlink:href="#A"/><linearGradient spreadMethod="repeat" y2="20.073" x2="-1014.256" y1="200.668" x1="-1014.256" id="N" xlink:href="#A"/><path id="O" d="M399.999 168.034c-77.749 0-102.473-47.186-202.749-47.089-100 0-125 47.089-197.25 47.089V198h400.001l-.002-29.966z"/><path id="P" d="M1199.996 168.034c-77.749 0-102.473-47.186-202.749-47.089-100 0-125 47.089-197.25 47.089V198h400.001v-29.966z"/><path id="Q" d="M1303.129 171.163c-77.749 0-102.473-47.186-202.749-47.089-100 0-125 47.089-197.25 47.089v29.966h400.001v-29.966z"/></defs><g transform="translate(0 -170)" class="C"><g transform="matrix(.264583 0 0 .447222 .602243 121.24654)"><use xlink:href="#O" fill="url(#G)"/><use xlink:href="#O" x="399.998" fill="url(#H)"/><use xlink:href="#P" fill="url(#G)"/><use xlink:href="#P" x="400" fill="url(#I)"/></g><g transform="matrix(.232427 0 0 .409168 52.051318 127.64084)"><path d="M903.128 171.163c-77.749 0-102.473-47.186-202.749-47.089-100 0-125 47.089-197.25 47.089v29.966H903.13l-.002-29.966z" fill="url(#J)"/><use xlink:href="#Q" fill="url(#K)"/><path d="M1597.483 171.163c-57.214 0-75.408-47.186-149.199-47.089-73.588 0-91.985 47.089-145.153 47.089v29.966h294.353v-29.966z" fill="url(#L)"/><use xlink:href="#Q" x="-724.485" y="-0.342" fill="url(#M)"/><path d="M294.353 170.821c-100.728 0-132.761-47.186-262.674-47.089-129.556 0-161.945 47.089-255.55 47.089v29.966h518.225v-29.966z" fill="url(#N)"/></g></g></svg>