<svg xmlns="http://www.w3.org/2000/svg" xmlns:xlink="http://www.w3.org/1999/xlink" viewBox="0 0 423 40" height="151.181" width="1598.74" xmlns:v="https://vecta.io/nano"><style><![CDATA[.B{color-interpolation-filters:sRGB}]]></style><defs><linearGradient id="A" gradientUnits="userSpaceOnUse"><stop offset="0" stop-color="#13bdb8"/><stop offset="1" stop-color="#34d4c0" stop-opacity="0"/></linearGradient><filter height="1.08" y="-.04" width="1.241" x="-.12"  class="B"><feGaussianBlur stdDeviation=".342"/></filter><filter height="1.365" y="-.182" width="2" x="-.5"  class="B"><feGaussianBlur stdDeviation="1.56"/></filter><filter height="1.2" y="-.1" width="1.027" x="-.014"  class="B"><feGaussianBlur stdDeviation=".477"/></filter><filter height="1.172" y="-.086" width="1.051" x="-.026"  class="B"><feGaussianBlur stdDeviation=".269"/></filter><filter height="1.366" y="-.183" width="1.044" x="-.022"  class="B"><feGaussianBlur stdDeviation=".417"/></filter><linearGradient spreadMethod="repeat" y2="17.286" x2="589.926" y1="197.881" x1="589.926" id="G" xlink:href="#A"/><linearGradient spreadMethod="repeat" y2="17.286" x2="189.928" y1="197.881" x1="189.928" id="H" xlink:href="#A"/><linearGradient spreadMethod="repeat" y2="17.286" x2="189.926" y1="197.881" x1="189.926" id="I" xlink:href="#A"/><path id="J" d="M399.999 168.034c-77.749 0-102.473-47.186-202.749-47.089-100 0-125 47.089-197.25 47.089V198h400.001l-.002-29.966z"/><path id="K" d="M1199.996 168.034c-77.749 0-102.473-47.186-202.749-47.089-100 0-125 47.089-197.25 47.089V198h400.001v-29.966z"/></defs><g transform="matrix(.264583 0 0 .447222 .602243 -48.75346)" fill-rule="evenodd"><use xlink:href="#J" fill="url(#G)"/><use xlink:href="#J" x="399.998" fill="url(#H)"/><use xlink:href="#K" fill="url(#G)"/><use xlink:href="#K" x="400" fill="url(#I)"/></g></svg>