<svg xmlns="http://www.w3.org/2000/svg" xmlns:xlink="http://www.w3.org/1999/xlink" viewBox="0 0 46 65" height="245.669" width="173.858" xmlns:v="https://vecta.io/nano"><defs><linearGradient id="A" gradientUnits="userSpaceOnUse"><stop offset="0" stop-color="#52bff6"/><stop offset="1" stop-color="#52bff6" stop-opacity="0"/></linearGradient><linearGradient y2="268.422" x2="363.885" y1="268.422" x1="357.061" id="B" xlink:href="#A"/><filter height="1.08" y="-.04" width="1.241" x="-.12" id="C" color-interpolation-filters="sRGB"><feGaussianBlur stdDeviation=".342"/></filter><linearGradient y2="268.422" x2="364.706" y1="268.422" x1="356.24" id="D" gradientUnits="userSpaceOnUse"><stop offset="0" stop-color="#52ebf6"/><stop offset="1" stop-color="#52ebf6" stop-opacity="0"/></linearGradient><filter height="1.365" y="-.182" width="2" x="-.5" id="E" color-interpolation-filters="sRGB"><feGaussianBlur stdDeviation="1.56"/></filter><linearGradient y2="268.422" x2="363.885" y1="268.422" x1="357.061" id="F" xlink:href="#A"/><path id="G" d="M362.284 278.688s2.272.401 1.403-3.14-3.564-4.805-.367-17.406c0 0-13.363 17.406-1.036 20.546z"/></defs><g transform="matrix(2.373702 0 0 2.373702 -842.057179 -602.586887)"><path d="M364.622 256.104s-12.161 14.833-6.147 20.847c6.682 6.348 12.361.267 12.361.267 5.917-6.018-6.214-21.114-6.214-21.114z" fill="#379aeb" stroke="#377bff" stroke-width=".265" stroke-linecap="round" stroke-linejoin="round" stroke-dasharray="0.13249999, 0.13249999"/><use xlink:href="#G" fill="url(#B)" filter="url(#C)"/><use xlink:href="#G" fill="url(#F)" filter="url(#C)"/><use xlink:href="#G" x="8.857" y="7.96" transform="matrix(.617395 -.056425 .079951 .874817 112.26513 47.311299)" opacity=".822" fill="url(#D)" filter="url(#E)"/></g></svg>